{"title":"Shetland S03E06 x264 RB58.mp4","uid":13749445,"size":665956833,"categoryP":"video","categoryS":"tv_shows","magnet":"?xt=urn:btih:1b8b592a57cf0e34e0e492520e7fc48883cccde9&amp;dn=Shetland+S03E06+x264+RB58.mp4&amp;tr=udp%3A%2F%2Ftracker.leechers-paradise.org%3A6969&amp;tr=udp%3A%2F%2Fzer0day.ch%3A1337&amp;tr=udp%3A%2F%2Fopen.demonii.com%3A1337&amp;tr=udp%3A%2F%2Ftracker.coppersurfer.tk%3A6969&amp;tr=udp%3A%2F%2Fexodus.desync.com%3A6969","seeders":0,"leechers":1,"uploader":"RedBaron58","files":1,"time":1457141962,"description":"Shetland S03E06 x264 mp4\r\n \nhttp://www.imdb.com/title/tt2396135/\r\n\r\nTrailer:\r\n\r\n\r\nPlease be patient My intial upload speed is limited.\r\nThank you for your kind comments and feedback on my other torrents, your feedback is welcome.\r\n\r\n\r\n\r\nAbout the Episode:\r\nOnce Perez and his team determine who assaulted Kelly Paterson, a new light is shone on \r\nthe murder of Michael Thompson, bringing a shocking revelation. \r\nBack in Shetland, witness Leanne struggles to deal with the emotional aftermath of being shot, \r\nwhile Perez is troubled to discover that Michael's witness protection handler Asha was \r\nin Lerwick on the day the e-mail was sent. \r\nAs investigators dig deeper into Asha's past, they discover a connection to one of \r\nMcCall's team and face a race against time to stop the killer from striking again.\r\n \r\nStarring Douglas Henshall, with Ciaran Hinds\r\n\r\n\r\nI hope you enjoy.\r\n\r\n\r\nTechnical:\r\n\r\n\r\nGeneral\r\nComplete name                            : G:Shetland S03E06 x264 RB58.mp4\r\nFormat                                   : MPEG-4\r\nFormat profile                           : Base Media\r\nCodec ID                                 : isom\r\nFile size                                : 635 MiB\r\nDuration                                 : 58mn 25s\r\nOverall bit rate                         : 1 520 Kbps\r\nWriting application                      : Lavf54.63.104\r\n\r\nVideo\r\nID                                       : 1\r\nFormat                                   : AVC\r\nFormat/Info                              : Advanced Video Codec\r\nFormat profile                           :   \r\nFormat settings, CABAC                   : Yes\r\nFormat settings, ReFrames                : 4 frames\r\nCodec ID                                 : avc1\r\nCodec ID/Info                            : Advanced Video Coding\r\nDuration                                 : 58mn 25s\r\nBit rate                                 : 1 400 Kbps\r\nWidth                                    : 832 pixels\r\nHeight                                   : 468 pixels\r\nDisplay aspect ratio                     : 16:9\r\nFrame rate mode                          : Constant\r\nFrame rate                               : 25.000 fps\r\nColor space                              : YUV\r\nChroma subsampling                       : 4:2:0\r\nBit depth                                : 8 bits\r\nScan type                                : Progressive\r\nBits/(Pixel*Frame)                       : 0.144\r\nStream size                              : 585 MiB (92%)\r\nWriting library                          : x264 core 123 r2189 35cf912\r\nEncoding settings                        : cabac=1 / ref=3 / deblock=1:0:0\r\n\r\nAudio\r\nID                                       : 2\r\nFormat                                   : AAC\r\nFormat/Info                              : Advanced Audio Codec\r\nFormat profile                           : LC\r\nCodec ID                                 : 40\r\nDuration                                 : 58mn 25s\r\nBit rate mode                            : Constant\r\nBit rate                                 : 112 Kbps\r\nChannel(s)                               : 2 channels\r\nChannel positions                        : Front: L R\r\nSampling rate                            : 48.0 KHz\r\nCompression mode                         : Lossy\r\nStream size                              : 46.8 MiB (7%)","torrent":{"xt":"urn:btih:1b8b592a57cf0e34e0e492520e7fc48883cccde9","amp;dn":"Shetland+S03E06+x264+RB58.mp4","amp;tr":["udp%3A%2F%2Ftracker.leechers-paradise.org%3A6969","udp%3A%2F%2Fzer0day.ch%3A1337","udp%3A%2F%2Fopen.demonii.com%3A1337","udp%3A%2F%2Ftracker.coppersurfer.tk%3A6969","udp%3A%2F%2Fexodus.desync.com%3A6969"],"infoHash":"1b8b592a57cf0e34e0e492520e7fc48883cccde9","infoHashBuffer":{"type":"Buffer","data":[27,139,89,42,87,207,14,52,224,228,146,82,14,127,196,136,131,204,205,233]},"announce":[],"urlList":[]}}